<?xml version="1.0" encoding="UTF-8" standalone="no"?>
<!DOCTYPE svg PUBLIC "-//W3C//DTD SVG 1.1//EN" "http://www.w3.org/Graphics/SVG/1.1/DTD/svg11.dtd">
<svg width="100%" height="100%" viewBox="0 0 177 101" version="1.1" xmlns="http://www.w3.org/2000/svg" xmlns:xlink="http://www.w3.org/1999/xlink" xml:space="preserve" xmlns:serif="http://www.serif.com/" style="fill-rule:evenodd;clip-rule:evenodd;stroke-linejoin:round;stroke-miterlimit:2;">
    <g transform="matrix(1,0,0,1,-2543.93,-169.353)">
        <g transform="matrix(1,0,0,1,2543.93,169.353)">
            <rect x="0" y="0" width="176.074" height="100.732" style="fill-opacity:0;"/>
            <path d="M88.037,77.881C100.049,77.881 112.305,97.949 135.938,97.949C158.838,97.949 176.074,77.148 176.074,49.756C176.074,4.932 136.719,0 88.037,0C39.356,0 0,4.98 0,49.756C0,77.148 17.236,97.949 40.137,97.949C63.77,97.949 76.025,77.881 88.037,77.881ZM88.037,69.238C70.85,69.238 61.914,89.307 40.137,89.307C21.24,89.307 8.643,73.926 8.643,49.756C8.643,12.5 40.283,8.643 88.037,8.643C135.791,8.643 167.432,12.451 167.432,49.756C167.432,73.926 154.883,89.307 135.938,89.307C114.16,89.307 105.225,69.238 88.037,69.238Z" style="fill-opacity:0.85;fill-rule:nonzero;"/>
            <path d="M88.037,69.238C70.85,69.238 61.914,89.307 40.137,89.307C21.24,89.307 8.643,73.926 8.643,49.756C8.643,12.5 40.283,8.643 88.037,8.643C135.791,8.643 167.432,12.451 167.432,49.756C167.432,73.926 154.883,89.307 135.938,89.307C114.16,89.307 105.225,69.238 88.037,69.238Z" style="fill-opacity:0.21;fill-rule:nonzero;"/>
        </g>
    </g>
</svg>
